<svg id="visual" viewBox="0 0 900 600" width="900" height="600" xmlns="http://www.w3.org/2000/svg" xmlns:xlink="http://www.w3.org/1999/xlink" version="1.1"><g transform="translate(422.4284769350073 283.34755747278376)"><path d="M124.7 -207.6C160.3 -195.3 187.1 -159.4 214.9 -120.9C242.6 -82.3 271.3 -41.2 257.3 -8.1C243.3 25 186.6 50 158.4 87.7C130.1 125.3 130.3 175.7 108.7 206.2C87 236.7 43.5 247.3 0.8 245.9C-41.8 244.5 -83.7 230.9 -107.8 201.8C-131.9 172.7 -138.3 128.1 -142.8 91.9C-147.4 55.7 -150.2 27.8 -167.2 -9.8C-184.3 -47.5 -215.5 -95 -202.9 -117.2C-190.2 -139.5 -133.6 -136.4 -92.5 -145.5C-51.3 -154.6 -25.7 -175.8 9.4 -192.1C44.5 -208.4 89 -219.8 124.7 -207.6" fill="#d10aae"></path></g></svg>