<svg id="visual" viewBox="0 0 900 600" width="900" height="600" xmlns="http://www.w3.org/2000/svg" xmlns:xlink="http://www.w3.org/1999/xlink" version="1.1"><path d="M0 572L13.7 571C27.3 570 54.7 568 82 566.8C109.3 565.7 136.7 565.3 163.8 566.2C191 567 218 569 245.2 570.3C272.3 571.7 299.7 572.3 327 570.7C354.3 569 381.7 565 409 565.2C436.3 565.3 463.7 569.7 491 569.8C518.3 570 545.7 566 573 564.5C600.3 563 627.7 564 654.8 564.8C682 565.7 709 566.3 736.2 565.5C763.3 564.7 790.7 562.3 818 564.2C845.3 566 872.7 572 886.3 575L900 578L900 601L886.3 601C872.7 601 845.3 601 818 601C790.7 601 763.3 601 736.2 601C709 601 682 601 654.8 601C627.7 601 600.3 601 573 601C545.7 601 518.3 601 491 601C463.7 601 436.3 601 409 601C381.7 601 354.3 601 327 601C299.7 601 272.3 601 245.2 601C218 601 191 601 163.8 601C136.7 601 109.3 601 82 601C54.7 601 27.3 601 13.7 601L0 601Z" fill="#cb5616" stroke-linecap="round" stroke-linejoin="miter"></path></svg>